<?xml version="1.0" encoding="UTF-8" standalone="no"?>
<!-- Created with Inkscape (http://www.inkscape.org/) -->

<svg
   version="1.1"
   id="svg1"
   width="1024"
   height="768"
   viewBox="0 0 1024 768"
   sodipodi:docname="image (1).jpg"
   inkscape:export-filename="image (1)2.svg"
   inkscape:export-xdpi="96"
   inkscape:export-ydpi="96"
   xml:space="preserve"
   xmlns:inkscape="http://www.inkscape.org/namespaces/inkscape"
   xmlns:sodipodi="http://sodipodi.sourceforge.net/DTD/sodipodi-0.dtd"
   xmlns="http://www.w3.org/2000/svg"
   xmlns:svg="http://www.w3.org/2000/svg"><defs
     id="defs1" /><sodipodi:namedview
     id="namedview1"
     pagecolor="#ffffff"
     bordercolor="#000000"
     borderopacity="0.25"
     inkscape:showpageshadow="2"
     inkscape:pageopacity="0.0"
     inkscape:pagecheckerboard="0"
     inkscape:deskcolor="#d1d1d1"
     showgrid="true"><inkscape:grid
       id="grid2"
       units="px"
       originx="0"
       originy="0"
       spacingx="1"
       spacingy="1"
       empcolor="#0099e5"
       empopacity="0.30196078"
       color="#0099e5"
       opacity="0.14901961"
       empspacing="5"
       enabled="true"
       visible="true" /><inkscape:page
       x="0"
       y="0"
       width="1024"
       height="768"
       id="page2"
       margin="0"
       bleed="0" /></sodipodi:namedview><g
     inkscape:groupmode="layer"
     inkscape:label="Image"
     id="g1"><path
       style="fill:#111111;stroke:none;stroke-width:1.4205"
       d="m 399.9718,157.60589 c -47.29008,10.68522 -69.72177,50.45079 -94.69995,87.89998 -50.84358,76.22856 -125.02782,154.02518 -160.50329,238.64391 -18.22258,43.46591 -1.40456,95.52711 39.29171,118.81337 97.90674,56.02181 161.91703,-91.90972 205.34986,-152.90535 13.35477,-18.75504 33.61825,-63.58349 61.67334,-60.71318 22.55576,2.30761 28.63848,25.71135 21.06638,43.66719 -10.92001,25.89476 -31.20317,45.10362 -36.20961,73.86596 -10.75259,61.7743 42.94167,119.18253 106.0815,105.73513 43.89052,-9.34769 67.13237,-48.71566 90.76725,-83.00714 42.91332,-62.26216 129.82034,-162.01765 34.21476,-223.08422 -31.33258,-20.01314 -72.54561,-15.13477 -102.25402,5.18659 -16.95882,11.60026 -38.22547,41.06079 -61.17792,25.84088 -28.82087,-19.11127 0.45607,-55.81971 3.28382,-80.67914 6.70366,-58.93435 -47.42769,-112.69812 -106.88383,-99.26398 m 380.69384,278.4354 C 666.34301,463.64596 712.68133,640.38668 826.12162,610.80658 940.14983,581.0732 894.04976,408.6632 780.66564,436.04129 Z"
       id="path2" /></g></svg>
